<?xml version="1.0" encoding="UTF-8"?>
<svg xmlns="http://www.w3.org/2000/svg" xmlns:xlink="http://www.w3.org/1999/xlink" width="100pt" height="100pt" viewBox="0 0 100 100" version="1.1">
<g id="surface5661001">
<path style=" stroke:none;fill-rule:nonzero;fill:rgb(100%,100%,100%);fill-opacity:1;" d="M 92 16 L 92 12 C 92 10.894531 91.105469 10 90 10 L 82 10 C 81.207031 10 80.570312 10.050781 80 10.199219 L 80 10 C 80 8.894531 79.105469 8 78 8 L 66 8 C 62.53125 8 61.277344 9.96875 60.542969 12 L 58.917969 12 C 58.453125 11.378906 58 10.570312 58 10 C 58 8.894531 57.105469 8 56 8 L 42 8 C 40.976562 8 40.121094 8.785156 40.011719 9.800781 C 39.964844 10.21875 39.113281 12 37.792969 12 L 32.3125 12 C 32.183594 11.847656 31.992188 11.558594 31.832031 11.195312 C 31.511719 10.46875 30.792969 10 30 10 L 10 10 C 8.894531 10 8 10.894531 8 12 L 8 28 C 8 33.644531 9.648438 40.792969 9.996094 42.234375 L 9.980469 45.265625 L 8.625 46.546875 C 8.226562 46.925781 8 47.449219 8 48 L 8 56 C 8 56.53125 8.210938 57.039062 8.585938 57.414062 L 10 58.828125 L 10 67.675781 L 8.105469 73.367188 C 7.980469 73.730469 7.96875 74.117188 8.0625 74.484375 L 9.921875 81.921875 L 8.105469 87.371094 C 7.898438 87.980469 8.003906 88.652344 8.378906 89.171875 C 8.753906 89.691406 9.359375 90 10 90 L 38 90 C 38.53125 90 39.039062 89.789062 39.414062 89.414062 L 39.59375 89.234375 C 40.65625 90.6875 42.132812 92 44 92 L 50 92 C 51.472656 92 52.761719 91.359375 53.894531 90.789062 C 54.671875 90.398438 55.472656 90 56 90 L 66 90 C 66.53125 90 67.039062 89.789062 67.414062 89.414062 L 67.898438 88.929688 C 68.027344 89.089844 68.144531 89.246094 68.265625 89.398438 C 69.246094 90.679688 70.261719 92 72 92 L 82 92 C 83.105469 92 84 91.105469 84 90 L 84 88.5625 L 89.515625 89.9375 C 90.113281 90.09375 90.746094 89.953125 91.234375 89.570312 C 91.722656 89.191406 92.003906 88.605469 92 87.984375 C 91.996094 87.789062 91.875 68.164062 92 58.023438 C 92.007812 57.484375 91.792969 56.964844 91.414062 56.585938 L 90 55.171875 L 90 46 C 90 45.46875 89.789062 44.960938 89.414062 44.585938 L 88.433594 43.605469 L 89.644531 41.1875 L 91.414062 39.414062 C 91.789062 39.039062 92 38.53125 92 38 L 91.96875 27.980469 C 91.96875 27.816406 91.949219 27.65625 91.910156 27.5 L 90.121094 20.234375 L 91.789062 16.894531 C 91.929688 16.617188 92 16.308594 92 16 Z M 68.179688 24 L 74.265625 28 L 72.234375 40 L 56 28 Z M 30 76 L 22 70 L 26 56 L 42 72 Z M 72.398438 74 L 63.066406 74 L 22 25.851562 L 29.464844 24 L 78 61.035156 Z M 72.398438 74 "/>
</g>
</svg>
